<?xml version="1.0" encoding="UTF-8"?>
<svg version="1.1" xmlns="http://www.w3.org/2000/svg" width="512" height="512">
<path d="M0 0 C15.84 0 31.68 0 48 0 C48 15.18 48 30.36 48 46 C101.79 46 155.58 46 211 46 C211 61.84 211 77.68 211 94 C188.23 94 165.46 94 142 94 C141.34 96.97 140.68 99.94 140 103 C138.99283318 106.38493049 137.78134473 109.68575247 136.5625 113 C136.21396973 113.94786377 135.86543945 114.89572754 135.50634766 115.87231445 C123.2033305 148.73848609 107.2118515 180.94318932 86 209 C84.95056111 210.44866696 83.90395432 211.89938758 82.859375 213.3515625 C76.61506163 221.99531515 70.23518717 230.35877547 63.0871582 238.28027344 C60.61268141 241.03675194 58.39555455 243.53664207 57 247 C57.99636187 248.02438455 58.99739287 249.04422713 60 250.0625 C60.556875 250.63097656 61.11375 251.19945312 61.6875 251.78515625 C63.58445796 253.60200619 65.5126024 255.30304438 67.5078125 257.0078125 C72.62677793 261.47762172 77.39773107 266.27258471 82.1875 271.08984375 C83.13991612 272.04412993 84.09255695 272.99819188 85.04541016 273.95204163 C87.52666925 276.4370797 90.00490791 278.92510796 92.48248291 281.41381836 C95.02162485 283.96327496 97.56367646 286.50982688 100.10546875 289.05664062 C105.07312882 294.03495631 110.03759686 299.01644371 115 304 C113.13690118 310.46763635 111.05543945 316.78727888 108.64453125 323.0703125 C108.18478157 324.28096878 108.18478157 324.28096878 107.71574402 325.51608276 C106.75125436 328.05364304 105.78197424 330.58934049 104.8125 333.125 C104.15137261 334.86185735 103.4905626 336.59883556 102.83007812 338.3359375 C101.22371016 342.55869468 99.61304804 346.77979027 98 351 C94 351 94 351 92.43021011 349.92240143 C91.92506756 349.4135717 91.419925 348.90474197 90.8994751 348.38049316 C90.31339981 347.79991653 89.72732452 347.2193399 89.12348938 346.62117004 C88.1772596 345.65336861 88.1772596 345.65336861 87.21191406 344.66601562 C86.53833359 343.99301926 85.86475311 343.32002289 85.17076111 342.62663269 C82.94277299 340.39585394 80.72929251 338.15123284 78.515625 335.90625 C76.97521769 334.35838385 75.4339259 332.81139744 73.89178467 331.26525879 C69.83215057 327.19034056 65.78467022 323.10355357 61.73956299 319.01422119 C57.61096054 314.84472646 53.47103394 310.68650992 49.33203125 306.52734375 C41.21019942 298.36259193 33.10115622 290.18526314 25 282 C21.3601792 283.53370582 19.05949332 285.70542172 16.29394531 288.49919128 C15.83599201 288.95896356 15.37803871 289.41873584 14.90620804 289.89244062 C13.37538303 291.4316683 11.85184445 292.97791042 10.328125 294.52416992 C9.23105917 295.62998653 8.13351285 296.73532663 7.03552246 297.84022522 C4.67343148 300.21879855 2.31434002 302.60029386 -0.04260254 304.98396873 C-3.76742223 308.75013125 -7.50145061 312.50707022 -11.23730469 316.26228333 C-21.85865083 326.94123112 -32.4698922 337.63015014 -43.06640625 348.33374023 C-48.91994041 354.24626403 -54.7823214 360.14986557 -60.65463638 366.04373819 C-64.37350685 369.77728301 -68.08100623 373.5216607 -71.78063965 377.27426374 C-74.08042432 379.60170635 -76.3905358 381.9186755 -78.70378113 384.23273277 C-79.77726175 385.31079787 -80.84641953 386.39318668 -81.91096497 387.48007584 C-83.36072545 388.95903145 -84.82495189 390.42194353 -86.29394531 391.88175964 C-87.11098938 392.70601031 -87.92803345 393.53026098 -88.76983643 394.37948895 C-91 396 -91 396 -93.1905098 395.83846092 C-95.3310646 394.84659507 -96.64120663 393.71976214 -98.29980469 392.04077148 C-98.92014587 391.4202037 -99.54048706 390.79963593 -100.17962646 390.16026306 C-100.83706848 389.48733719 -101.4945105 388.81441132 -102.171875 388.12109375 C-102.8542926 387.4344313 -103.53671021 386.74776886 -104.23980713 386.04029846 C-106.41701196 383.84630585 -108.58355281 381.64211084 -110.75 379.4375 C-112.22456971 377.94788366 -113.69982213 376.4589428 -115.17578125 374.97070312 C-118.79182176 371.32159192 -122.39833288 367.66329621 -126 364 C-124.43528603 359.98363149 -121.60391402 357.59850702 -118.44848633 354.81958008 C-110.76132274 347.88226523 -103.46587081 340.58092479 -96.16553307 333.24069786 C-93.76620564 330.82839183 -91.36357978 328.41941239 -88.9601593 326.01118469 C-83.86641948 320.90613035 -78.77666639 315.79711302 -73.6875 310.6875 C-67.76562421 304.74192165 -61.84207062 298.79803431 -55.91428566 292.85834694 C-53.55924313 290.49687292 -51.2072557 288.1323857 -48.85539246 285.76774597 C-47.40203521 284.31075404 -45.94853617 282.85390354 -44.49487305 281.3972168 C-43.85210419 280.74928162 -43.20933533 280.10134644 -42.54708862 279.43377686 C-38.74763412 275.63388673 -34.8307332 272.02991946 -30.75449085 268.52808762 C-28.34778563 266.43194876 -26.09257583 264.20502699 -23.84375 261.94140625 C-22.9671875 261.06162109 -22.090625 260.18183594 -21.1875 259.27539062 C-19.8571875 257.93250977 -19.8571875 257.93250977 -18.5 256.5625 C-17.5821875 255.64017578 -16.664375 254.71785156 -15.71875 253.76757812 C-13.47684945 251.51400101 -11.237334 249.25810925 -9 247 C-10.75719661 243.28154523 -12.9606316 240.59778772 -15.6875 237.5 C-38.83271366 210.63022446 -56.93203318 180.47502482 -73 149 C-73.40895508 148.21125488 -73.81791016 147.42250977 -74.23925781 146.60986328 C-77 141.22774912 -77 141.22774912 -77 139 C-61.16 139 -45.32 139 -29 139 C-27.123125 142.3825 -25.24625 145.765 -23.3125 149.25 C-9.82910845 173.20268825 5.8874014 195.31633338 24 216 C37.82553117 201.85829245 49.42490943 185.67610435 60 169 C60.69867188 167.90816406 61.39734375 166.81632813 62.1171875 165.69140625 C76.02467161 143.4797525 87.05943165 119.58656295 96 95 C10.86 94.67 -74.28 94.34 -162 94 C-162 78.16 -162 62.32 -162 46 C-108.54 46 -55.08 46 0 46 C0 30.82 0 15.64 0 0 Z " fill="#000000" transform="translate(162,23)"/>
<path d="M0 0 C15.84 0 31.68 0 48 0 C56.34492743 21.76987223 64.61999806 43.5624045 72.79135132 65.39782715 C74.23956011 69.26685661 75.68917649 73.13535866 77.13867188 77.00390625 C79.25622422 82.65571464 81.37342752 88.30765351 83.49014664 93.95977402 C88.65442163 107.74939506 93.82494043 121.53667252 98.99603558 135.32373714 C100.94235862 140.51300966 102.88838005 145.70239521 104.83422852 150.8918457 C110.0539326 164.81230936 115.27446459 178.73246116 120.49758911 192.65164185 C122.6355851 198.34923741 124.77320817 204.04697288 126.91075325 209.74473763 C128.35767219 213.60150743 129.80479219 217.45820151 131.25244141 221.31469727 C134.10951796 228.92615306 136.96403217 236.53855008 139.81140327 244.15364265 C141.28816956 248.10204834 142.77036006 252.04836856 144.25625324 255.99334812 C144.97903864 257.9144626 145.6995932 259.83639597 146.41917419 261.75871277 C147.30170451 264.11616898 148.18778828 266.47229906 149.07801819 268.82685852 C149.46469162 269.86327988 149.85136505 270.89970123 150.24975586 271.9675293 C150.58953964 272.87174118 150.92932343 273.77595306 151.27940369 274.70756531 C152 277 152 277 152 280 C136.49 280 120.98 280 105 280 C99.37280428 266.49473026 99.37280428 266.49473026 97.50463867 261.52880859 C96.87455147 259.85810806 96.87455147 259.85810806 96.23173523 258.15365601 C95.79819229 256.9969339 95.36464935 255.84021179 94.91796875 254.6484375 C94.45892654 253.4271817 93.99988434 252.2059259 93.52693176 250.94766235 C92.56668734 248.39192984 91.60809601 245.835585 90.65063477 243.27880859 C89.42258649 240.00010484 88.18949323 236.72332324 86.95511913 233.44699669 C85.77304777 230.30694191 84.59576801 227.1650972 83.41796875 224.0234375 C82.97430466 222.84647308 82.53064056 221.66950867 82.0735321 220.45687866 C81.66923477 219.37459991 81.26493744 218.29232117 80.84838867 217.17724609 C80.49040695 216.22304779 80.13242523 215.26884949 79.76359558 214.28573608 C79 212 79 212 79 210 C42.7 210 6.4 210 -31 210 C-31.99 213.3 -32.98 216.6 -34 220 C-34.91536132 222.61049867 -35.84546943 225.20173544 -36.8203125 227.7890625 C-37.08055206 228.48769409 -37.34079163 229.18632568 -37.60891724 229.90612793 C-38.44448715 232.14693361 -39.28457686 234.38601056 -40.125 236.625 C-40.705642 238.17813357 -41.28604354 239.73135705 -41.86621094 241.28466797 C-43.02597856 244.38833123 -44.18760197 247.49129061 -45.35058594 250.59375 C-46.8482169 254.59090987 -48.33566487 258.59174975 -49.8203125 262.59375 C-50.63009169 264.77087672 -51.43997903 266.94796322 -52.25 269.125 C-52.62012207 270.1248291 -52.99024414 271.1246582 -53.37158203 272.15478516 C-53.70786621 273.05503418 -54.04415039 273.9552832 -54.390625 274.8828125 C-54.67969727 275.66027832 -54.96876953 276.43774414 -55.26660156 277.23876953 C-56 279 -56 279 -57 280 C-58.47354348 280.09304018 -59.95150591 280.11746265 -61.42797852 280.11352539 C-62.36887833 280.11344986 -63.30977814 280.11337433 -64.27919006 280.11329651 C-65.30209641 280.10813522 -66.32500275 280.10297394 -67.37890625 280.09765625 C-68.941605 280.09553383 -68.941605 280.09553383 -70.53587341 280.09336853 C-73.87811094 280.0877508 -77.22028257 280.0751953 -80.5625 280.0625 C-82.82226466 280.05748728 -85.08203037 280.05292398 -87.34179688 280.04882812 C-92.89455391 280.03777561 -98.44727225 280.02102024 -104 280 C-102.52127564 272.17523582 -99.908734 264.97898717 -97.06640625 257.55859375 C-96.5603893 256.22366354 -96.05495305 254.88851309 -95.55004883 253.55316162 C-94.4646496 250.68583771 -93.37554398 247.81996093 -92.28347778 244.95516968 C-90.52957613 240.35377257 -88.78436681 235.74910958 -87.04077148 231.14379883 C-86.4393008 229.55539879 -85.83781448 227.96700466 -85.23631287 226.37861633 C-84.93550749 225.58426996 -84.63470211 224.78992359 -84.32478142 223.97150612 C-83.39907732 221.52794141 -82.47255359 219.08468895 -81.54579163 216.64152527 C-75.45452777 200.58118366 -69.42088248 184.49944379 -63.39647293 168.41392899 C-61.99658479 164.67669554 -60.59581559 160.93979238 -59.19506836 157.20288086 C-57.21878054 151.93040875 -55.24266198 146.6578733 -53.26684093 141.38522625 C-49.5243741 131.39820895 -45.78011644 121.41186382 -42.03515625 111.42578125 C-41.74784323 110.65963816 -41.4605302 109.89349506 -41.16451073 109.10413551 C-38.30842861 101.48818601 -35.4521871 93.8722963 -32.59574413 86.25648212 C-31.21482135 82.57465257 -29.8339587 78.89280047 -28.453125 75.2109375 C-28.18351267 74.49205038 -27.91390034 73.77316326 -27.63611794 73.03249168 C-23.90159094 63.07454408 -20.17014782 53.11544576 -16.44096756 43.15549469 C-14.95418696 39.18491079 -13.46685943 35.21453173 -11.97951317 31.2441597 C-10.82022466 28.14932926 -9.66148868 25.05429358 -8.503479 21.95898438 C-7.25067552 18.61031654 -5.99657898 15.26213574 -4.7421875 11.9140625 C-4.37381775 10.92830231 -4.005448 9.94254211 -3.62591553 8.9269104 C-3.29158508 8.03531219 -2.95725464 7.14371399 -2.61279297 6.22509766 C-2.32338837 5.45187164 -2.03398376 4.67864563 -1.73580933 3.88198853 C-1 2 -1 2 0 0 Z M23 65 C22.65557861 65.94875 22.31115723 66.8975 21.95629883 67.875 C20.24525085 72.58462892 18.52969134 77.29260786 16.8125 82 C16.33053665 83.32124878 16.33053665 83.32124878 15.83883667 84.66918945 C11.39026829 96.8522145 6.88552953 109.0135646 2.328125 121.15625 C2.08882956 121.79386261 1.84953411 122.43147522 1.60298729 123.08840942 C-0.79086972 129.46541475 -3.18855659 135.84097023 -5.59104347 142.21472931 C-6.27537843 144.030778 -6.95895705 145.84711164 -7.64251709 147.66345215 C-8.48738939 149.9082171 -9.33364815 152.15246084 -10.18145752 154.39611816 C-10.55397644 155.38623901 -10.92649536 156.37635986 -11.31030273 157.39648438 C-11.63812241 158.26543335 -11.96594208 159.13438232 -12.30369568 160.02966309 C-13.05553323 161.80885058 -13.05553323 161.80885058 -13 163 C11.42 163 35.84 163 61 163 C56.75771771 150.87919347 52.49774419 138.7960221 47.98828125 126.77734375 C47.44716596 125.33019729 46.90625195 123.88297555 46.36552429 122.4356842 C44.96663264 118.6928572 43.56537468 114.95092115 42.16345215 111.20922852 C39.91028977 105.19411565 37.66119561 99.17747983 35.41148949 93.16107368 C34.63670996 91.0899722 33.86109159 89.01918666 33.08528137 86.94847107 C30.35109622 79.64629176 27.64663057 72.33441635 25 65 C24.34 65 23.68 65 23 65 Z " fill="#000000" transform="translate(360,209)"/>
</svg>
